<?xml version="1.0" standalone="no"?>
<!DOCTYPE svg PUBLIC "-//W3C//DTD SVG 20010904//EN"
 "http://www.w3.org/TR/2001/REC-SVG-20010904/DTD/svg10.dtd">
<svg version="1.0" xmlns="http://www.w3.org/2000/svg"
 width="103.000000pt" height="103.000000pt" viewBox="0 0 103.000000 103.000000"
 preserveAspectRatio="xMidYMid meet">
<metadata>
Created by potrace 1.14, written by Peter Selinger 2001-2017
</metadata>
<g transform="translate(0.000000,103.000000) scale(0.100000,-0.100000)"
fill="#000000" stroke="none">
<path d="M223 1009 c-63 -24 -146 -97 -175 -153 -40 -78 -48 -132 -48 -336 0
-127 5 -215 14 -251 25 -110 90 -189 196 -238 55 -26 57 -26 300 -26 169 0
258 4 287 13 98 29 195 130 221 228 8 28 12 130 12 279 0 283 -8 314 -99 406
-92 92 -122 99 -414 98 -217 0 -247 -2 -294 -20z m435 -231 c20 -20 14 -56
-13 -74 -24 -16 -27 -16 -45 1 -36 32 -20 85 25 85 12 0 26 -5 33 -12z m-108
-68 c10 -5 30 -30 44 -54 24 -41 30 -45 69 -48 34 -2 42 -7 42 -23 0 -17 -8
-20 -56 -23 -52 -3 -59 0 -78 25 -24 29 -43 26 -65 -11 -9 -14 -6 -21 17 -38
26 -19 28 -25 27 -87 -2 -85 -7 -101 -31 -101 -10 0 -19 3 -20 8 0 4 -2 33 -3
65 -2 31 -5 59 -7 60 -2 2 -23 15 -46 30 -74 47 -74 57 4 137 38 39 72 70 77
70 4 0 16 -4 26 -10z m-133 -230 c60 -46 71 -120 27 -177 -51 -66 -120 -79
-184 -33 -61 44 -76 113 -37 171 46 69 134 87 194 39z m335 21 c69 -26 104
-110 73 -176 -61 -127 -238 -100 -252 39 -10 97 88 172 179 137z"/>
<path d="M298 454 c-55 -29 -65 -94 -22 -138 35 -34 82 -35 118 -1 23 21 27
32 24 67 -2 35 -9 46 -37 65 -39 27 -47 27 -83 7z"/>
<path d="M662 450 c-42 -26 -57 -64 -41 -102 26 -63 92 -77 140 -29 16 16 29
39 29 51 0 31 -29 76 -57 89 -31 14 -33 14 -71 -9z"/>
</g>
</svg>
